<?xml version="1.0" encoding="UTF-8"?><svg id="Layer_2" xmlns="http://www.w3.org/2000/svg" viewBox="0 0 372.9 133.11"><defs><style>.cls-1{fill:#009ddc;}.cls-1,.cls-2,.cls-3,.cls-4{stroke-width:0px;}.cls-2,.cls-3{fill:#231f20;}.cls-3{fill-rule:evenodd;}.cls-4{fill:#ee3224;}</style></defs><g id="Layer_1-2"><path class="cls-2" d="M168.22,35.92l17.74-3.14c-11.82-5.23-26.06-9.7-37.82-9.7-1.63.08-3.41.07-4.93.25,9.19,3.02,16.91,7.42,25.01,12.6h0Z"/><path class="cls-2" d="M162.2,22.37c.49-.26,5.91-.59,8.79-.74,18.72-1,35.75-.25,54.83,3.83-6.33,1.16-13.77,3.27-20.13,3.68-.22.01-15.27-5.14-43.49-6.77h0Z"/><path class="cls-2" d="M232.33,62.75c-7.65-7.02-16.2-13.25-24.97-18.81l-22.64,5.41c7.38,6.79,13.88,15.06,18.86,23.77l28.76-10.37h0Z"/><path class="cls-2" d="M261.23,52.41c-9.46-5.83-18.95-10.66-28.55-14.58h0l25.63-6.2c11,2.8,21.74,6.29,32.06,10.57l-29.13,10.22h0Z"/><path class="cls-2" d="M185.93,32.74l19.96-3.63c1.96-.36,22.64,6.58,27.08,8.75l-25.72,6.21c-7.1-4.67-14.71-8.27-21.31-11.33h0Z"/><path class="cls-2" d="M141.31,1.03c6.31.04,13.39.23,19.27,1.36,10.04,1.94,22.13,6.98,27.93,12.78l-15.31,2.92c-5.01-8.95-20.39-15.77-31.88-17.06h0Z"/><path class="cls-1" d="M159.85.01c14.35-.29,33.6,5.23,42.3,12.3l-9.33,1.76C181.51,5.6,174.38,2.24,159.85.01h0Z"/><path class="cls-1" d="M291.15,36.48s-52.52-18.71-101.26-17.08c0,0,35.87-11.22,96.38,3.66l4.88,13.42h0Z"/><polygon class="cls-4" points="9.48 66.35 11.82 101.72 27.38 66.35 37.79 66.35 39.85 101.72 56.28 66.35 65.35 66.35 42.78 112.35 31.96 112.35 30.16 78.01 15.16 112.35 4.4 112.35 0 66.35 9.48 66.35 9.48 66.35"/><path class="cls-4" d="M80.7,78.59c8.42,0,11.8,4.29,10.07,12.62l-4.4,21.14h-21.88c-6.14,0-8.8-3.52-7.51-9.74,1.63-7.81,5.93-10.76,14.53-10.76h10.71c.07-.32.12-.58.17-.83.89-4.29-1.09-5.44-6.24-5.44h-13.57l1.45-6.98h16.67ZM79.41,105.56l1.46-6.98h-9.6c-3.45,0-5.19.77-5.82,3.78-.59,2.82.79,3.2,3.78,3.2h10.18Z"/><path class="cls-4" d="M102.06,78.59l2.55-12.24h8.13l-2.55,12.24h8.6l-1.4,6.73h-8.6l-2.84,13.64c-.97,4.68-.28,6.66,3.88,6.66h3.33l-1.4,6.73h-7.43c-5.91,0-8.54-3.65-7.1-10.57l3.43-16.46h-5.73l1.4-6.73h5.73Z"/><polygon class="cls-4" points="134.5 66.35 128.58 94.8 145.06 78.59 155.35 78.59 137.64 95.12 148.32 112.35 137.38 112.35 128.34 95.95 124.92 112.35 116.79 112.35 126.37 66.35 134.5 66.35 134.5 66.35"/><polygon class="cls-4" points="151.77 112.35 158.81 78.59 167.35 78.59 160.31 112.35 151.77 112.35 151.77 112.35"/><polygon class="cls-4" points="159.49 75.46 160.8 69.2 169.35 69.2 168.03 75.46 159.49 75.46 159.49 75.46"/><path class="cls-4" d="M189.69,78.59c9.13,0,12.16,3.4,10.29,12.37l-4.45,21.39h-8.13l4.23-20.31c.97-4.68.49-6.02-4.13-6.02h-6.55l-5.49,26.33h-8.12l7.03-33.76h15.33Z"/><path class="cls-4" d="M220.57,105.3c2.92,0,4.57-.9,5.07-3.27.49-2.37-.77-3.33-3.69-3.33h-7.02c-7.49,0-10.3-1.66-8.66-9.54,1.51-7.24,5.65-10.57,13.08-10.57h17.49l-1.47,7.05h-14.39c-3.69,0-5.67.26-6.26,3.08-.44,2.11.6,3.01,3.23,3.01h7.37c6.79,0,9.61,3.59,8.26,10.06-1.32,6.34-5.77,10.57-10.63,10.57h-21l1.47-7.04h17.14Z"/><path class="cls-4" d="M271.92,85.06h20.88l-5.68,27.29h-19.01c-5.09,0-9.06-.32-12.5-4.04-3.54-3.78-4.39-9.8-2.66-18.13,3.39-16.27,11.28-23.83,24.74-23.83h19.01l-1.65,7.94h-19.01c-7.08,0-10.97,4.93-13.16,15.44-2.04,9.8-.17,14.28,6.97,14.28h9.94l2.26-10.82h-11.82l1.7-8.14h0Z"/><polygon class="cls-4" points="293.44 112.35 303.02 66.35 311.5 66.35 301.92 112.35 293.44 112.35 293.44 112.35"/><path class="cls-4" d="M310.64,95.5c2.29-11.02,8.79-16.91,19.03-16.91h11.88l-1.47,7.05h-10.76c-5.21,0-7.63.96-8.93,6.34h18.37l-1.47,7.05h-18.37c-.99,5.57.97,6.28,6.24,6.28h10.82l-1.47,7.04h-11.87c-10.24,0-14.3-5.77-11.99-16.85h0Z"/><path class="cls-4" d="M362.08,78.59c9.13,0,12.16,3.4,10.29,12.37l-4.46,21.39h-8.13l4.23-20.31c.97-4.68.49-6.02-4.13-6.02h-6.55l-5.49,26.33h-8.13l7.03-33.76h15.33Z"/><polygon class="cls-2" points="5.93 132.83 8.41 121.09 11 121.09 8.52 132.83 5.93 132.83 5.93 132.83"/><polygon class="cls-2" points="29.77 132.83 32.25 121.09 34.91 121.09 38.1 129.45 38.13 129.45 39.81 121.09 42.18 121.09 39.69 132.83 37.11 132.83 33.89 124.6 33.86 124.6 32.18 132.83 29.77 132.83 29.77 132.83"/><polygon class="cls-2" points="63.55 132.83 65.55 123.26 61.88 123.26 62.34 121.09 72.13 121.09 71.67 123.26 68.15 123.26 66.15 132.83 63.55 132.83 63.55 132.83"/><polygon class="cls-2" points="89.94 132.83 92.41 121.09 101.36 121.09 100.92 123.26 94.54 123.26 94.02 125.78 99.92 125.78 99.49 127.79 93.59 127.79 92.98 130.66 99.46 130.66 99 132.83 89.94 132.83 89.94 132.83"/><path class="cls-3" d="M119.88,132.81l2.46-11.74h5.61c1.07-.03,1.92.2,2.54.67.62.48.94,1.28.95,2.4-.01.81-.27,1.51-.76,2.09-.49.58-1.14.93-1.94,1.07v.03c.47.16.8.42.97.8.17.37.26.8.25,1.27,0,.27-.02.59-.04.95-.03.36-.04.72-.04,1.09-.01.54.04,1,.17,1.37h-2.52c-.07-.27-.11-.54-.12-.79,0-.4.03-.79.07-1.19.04-.4.06-.8.06-1.19,0-.56-.16-.93-.46-1.13-.3-.2-.71-.3-1.23-.29h-2.43l-.97,4.59h-2.58ZM124.52,123.07l-.69,3.3h2.39c.46,0,.89-.07,1.29-.2.4-.13.73-.33.98-.6.25-.27.38-.62.39-1.06-.02-.61-.21-1.01-.57-1.2-.36-.19-.81-.27-1.34-.25h-2.45Z"/><polygon class="cls-2" points="150.72 132.83 153.21 121.09 155.87 121.09 159.06 129.45 159.09 129.45 160.77 121.09 163.13 121.09 160.65 132.83 158.07 132.83 154.85 124.6 154.82 124.6 153.14 132.83 150.72 132.83 150.72 132.83"/><path class="cls-3" d="M188.44,123.62l-2.53,4.67h3.14l-.57-4.67h-.03ZM180.68,132.83l6.94-11.74h2.64l1.96,11.74h-2.56l-.38-2.62h-4.39l-1.48,2.62h-2.73Z"/><polygon class="cls-2" points="213.84 132.83 215.85 123.26 212.16 123.26 212.62 121.09 222.42 121.09 221.96 123.26 218.44 123.26 216.43 132.83 213.84 132.83 213.84 132.83"/><polygon class="cls-2" points="240.23 132.83 242.71 121.09 245.31 121.09 242.82 132.83 240.23 132.83 240.23 132.83"/><path class="cls-3" d="M267.32,127.92c0,.54.09,1.04.28,1.5.18.46.47.82.87,1.1.39.28.9.42,1.52.43.84-.02,1.55-.28,2.11-.78.56-.5.98-1.13,1.26-1.87.28-.75.42-1.5.42-2.26,0-.55-.08-1.06-.26-1.52-.18-.46-.45-.82-.84-1.1-.38-.27-.89-.41-1.52-.42-.88.02-1.61.28-2.17.78-.57.5-.99,1.12-1.27,1.87-.28.75-.41,1.51-.41,2.28h0ZM264.74,127.92c0-1.28.27-2.46.78-3.53.52-1.07,1.25-1.93,2.21-2.57.95-.65,2.1-.98,3.42-1,1.61,0,2.87.43,3.79,1.28.93.85,1.4,2.1,1.42,3.75,0,1.31-.25,2.51-.75,3.6-.5,1.09-1.22,1.97-2.17,2.64-.96.67-2.12,1.01-3.49,1.03-1.66,0-2.93-.46-3.84-1.36-.9-.9-1.36-2.17-1.37-3.84h0Z"/><polygon class="cls-2" points="295.83 132.83 298.31 121.09 300.98 121.09 304.17 129.45 304.2 129.45 305.88 121.09 308.24 121.09 305.76 132.83 303.18 132.83 299.96 124.6 299.92 124.6 298.25 132.83 295.83 132.83 295.83 132.83"/><path class="cls-3" d="M333.55,123.62l-2.53,4.67h3.14l-.57-4.67h-.03ZM325.79,132.83l6.94-11.74h2.65l1.96,11.74h-2.56l-.38-2.62h-4.39l-1.48,2.62h-2.73Z"/><polygon class="cls-2" points="357.22 132.83 359.69 121.09 362.29 121.09 360.28 130.66 365.95 130.66 365.49 132.83 357.22 132.83 357.22 132.83"/></g></svg>